<?xml version="1.0" encoding="UTF-8"?>
<svg version="1.1" xmlns="http://www.w3.org/2000/svg" width="135" height="90">
<path d="M0 0 C3.76651128 0.54876323 5.26652261 2.00763849 7.6875 4.875 C8.28949219 5.57367188 8.89148438 6.27234375 9.51171875 6.9921875 C11 9 11 9 12 12 C12.66 12 13.32 12 14 12 C19.67136741 17.79774885 22.5199773 24.5197881 23.375 32.5 C22.53053293 40.38169263 20.05680967 46.71056893 14 52 C9.36669697 55.3039165 4.92387803 56.6826854 -0.76953125 56.37890625 C-7.19131425 55.2879904 -11.78303979 51.98936322 -15.74609375 46.9140625 C-20.14367624 40.20124188 -21.06725404 33.51414587 -19.5546875 25.69921875 C-16.94100183 17.29415588 -10.41604559 11.59326241 -4.40185547 5.48144531 C-2.77346027 3.76059856 -1.34796866 1.94759885 0 0 Z " fill="#161814" transform="translate(65,8)"/>
<path d="M0 0 C6.0546875 -0.1953125 6.0546875 -0.1953125 8 0 C8.66 0.66 9.32 1.32 10 2 C9.66666667 4.33333333 9.33333333 6.66666667 9 9 C9.66 9.66 10.32 10.32 11 11 C12.65 7.37 14.3 3.74 16 0 C19 1 19 1 20.16796875 3.06640625 C21.11197917 5.37760417 22.05598958 7.68880208 23 10 C23.33 6.7 23.66 3.4 24 0 C24.99 0 25.98 0 27 0 C27 1.65 27 3.3 27 5 C28.65 5 30.3 5 32 5 C32 3.35 32 1.7 32 0 C33.32 0 34.64 0 36 0 C36.495 3.465 36.495 3.465 37 7 C37.66 4.69 38.32 2.38 39 0 C39.66 0 40.32 0 41 0 C42.4606285 2.64738916 43 3.89448334 43 7 C43.66 7 44.32 7 45 7 C45.33 5.02 45.66 3.04 46 1 C46.99 0.67 47.98 0.34 49 0 C49.99 3.3 50.98 6.6 52 10 C53.65 6.7 55.3 3.4 57 0 C57.66 0 58.32 0 59 0 C60.98 4.62 62.96 9.24 65 14 C63.68 14 62.36 14 61 14 C60.505 13.01 60.505 13.01 60 12 C57.47266765 11.34444881 57.47266765 11.34444881 55 11 C55 11.99 55 12.98 55 14 C53.02 14 51.04 14 49 14 C48.34 12.68 47.68 11.36 47 10 C46.34 11.32 45.68 12.64 45 14 C44.34 14 43.68 14 43 14 C42.34 12.68 41.68 11.36 41 10 C40.67 11.32 40.34 12.64 40 14 C37.36 14 34.72 14 32 14 C32 12.35 32 10.7 32 9 C29.525 8.505 29.525 8.505 27 8 C27 9.98 27 11.96 27 14 C24.69 14 22.38 14 20 14 C19.67 13.34 19.34 12.68 19 12 C17.68 12 16.36 12 15 12 C14.67 12.66 14.34 13.32 14 14 C8.5 14.36666667 8.5 14.36666667 6.125 12.625 C5 11 5 11 5 9 C4.34 9 3.68 9 3 9 C3 10.65 3 12.3 3 14 C2.01 14 1.02 14 0 14 C0 9.38 0 4.76 0 0 Z M3 3 C3 3.99 3 4.98 3 6 C4.32 5.67 5.64 5.34 7 5 C6.67 4.34 6.34 3.68 6 3 C5.01 3 4.02 3 3 3 Z M57 6 C57 6.99 57 7.98 57 9 C57.66 8.67 58.32 8.34 59 8 C58.34 7.34 57.68 6.68 57 6 Z M16 7 C16 7.66 16 8.32 16 9 C16.66 9 17.32 9 18 9 C18 8.34 18 7.68 18 7 C17.34 7 16.68 7 16 7 Z " fill="#1F695A" transform="translate(23,68)"/>
<path d="M0 0 C3.76651128 0.54876323 5.26652261 2.00763849 7.6875 4.875 C8.28949219 5.57367188 8.89148438 6.27234375 9.51171875 6.9921875 C11 9 11 9 12 12 C12.66 12 13.32 12 14 12 C19.42333313 17.54418735 22.71317103 24.31512676 23.1875 32.0625 C23.0946875 33.0215625 23.0946875 33.0215625 23 34 C20.43383368 30.15075052 20.44902324 27.5650696 20 23 C19.01 23 18.02 23 17 23 C15.38671875 21.2421875 15.38671875 21.2421875 13.6875 18.875 C11.4667245 15.87459054 9.26270764 13.14113431 6.5625 10.5625 C5.716875 9.716875 4.87125 8.87125 4 8 C4 7.34 4 6.68 4 6 C-1.93494283 6.57468637 -4.16050307 9.98189363 -7.84375 14.328125 C-8.5553125 15.20984375 -9.266875 16.0915625 -10 17 C-10.5465625 17.65484375 -11.093125 18.3096875 -11.65625 18.984375 C-15.90146779 24.75984571 -15.88292427 31.018029 -16 38 C-15.01 37.34 -14.02 36.68 -13 36 C-12.56699605 34.00183949 -12.56699605 34.00183949 -12.5625 31.75 C-11.78973226 22.91234716 -4.76901211 17.23743618 1 11 C4.63221409 13.73051059 7.45291105 16.54856948 10.25 20.125 C10.93578125 20.99382813 11.6215625 21.86265625 12.328125 22.7578125 C15.22935947 26.64872041 15.08939719 29.17255154 15 34 C13 32 13 32 11.3125 28.375 C8.98767196 23.54855092 5.65999002 19.86560744 2 16 C-2.21767063 19.01262188 -5.5152516 22.4428657 -8 27 C-8 27.99 -8 28.98 -8 30 C-5.03 27.525 -5.03 27.525 -2 25 C-2 28.69859196 -2.79844389 29.22773143 -5.25 31.875 C-5.88679688 32.57882813 -6.52359375 33.28265625 -7.1796875 34.0078125 C-7.78039063 34.66523437 -8.38109375 35.32265625 -9 36 C-12.4942655 40.01943519 -12.4942655 40.01943519 -14 45 C-14.99 45 -15.98 45 -17 45 C-20.28119919 37.48058519 -21.28742888 31.27135024 -18.8125 23.3125 C-15.74500406 16.18113169 -9.76423643 10.93087258 -4.40185547 5.48144531 C-2.77346027 3.76059856 -1.34796866 1.94759885 0 0 Z " fill="#1D1B18" transform="translate(65,8)"/>
<path d="M0 0 C3.58621852 0.56254408 5.0145244 1.73584797 7.3125 4.5 C7.90933594 5.21414062 8.50617188 5.92828125 9.12109375 6.6640625 C19.13612565 19.11518325 19.13612565 19.11518325 19.0625 26.625 C19.05347656 27.81351563 19.04445312 29.00203125 19.03515625 30.2265625 C19.02355469 31.14179687 19.01195312 32.05703125 19 33 C17.0234375 32.2578125 17.0234375 32.2578125 15 31 C14.6015625 29.1171875 14.6015625 29.1171875 14.625 26.875 C14.23337694 21.19191182 11.67010139 18.16788526 8 14 C7.42894531 13.32195313 6.85789062 12.64390625 6.26953125 11.9453125 C4.8635519 10.28218254 3.43408625 8.63895571 2 7 C-3.39223844 11.10837215 -7.93863389 15.87726778 -11 22 C-11.19319801 24.30120301 -11.3171869 26.59955632 -11.42578125 28.90625 C-12 31 -12 31 -14.04296875 32.28125 C-14.68878906 32.5184375 -15.33460937 32.755625 -16 33 C-16.64013162 25.33027484 -16.83085856 19.51333184 -12 13.27734375 C-11.34 12.52582031 -10.68 11.77429687 -10 11 C-9.13375 10.01128906 -8.2675 9.02257812 -7.375 8.00390625 C-4.96135139 5.293378 -2.49399399 2.6369304 0 0 Z " fill="#E9A64E" transform="translate(65,13)"/>
<path d="M0 0 C3.66786393 1.50349377 5.68910393 3.63728792 8.25 6.625 C8.95640625 7.44226562 9.6628125 8.25953125 10.390625 9.1015625 C10.92171875 9.72804688 11.4528125 10.35453125 12 11 C11.34 12.65 10.68 14.3 10 16 C6.63279613 14.60667426 5.0140476 13.0210714 3 10 C-0.39135719 11.4310782 -2.23764957 13.17065183 -4.5625 16 C-6.67356316 18.55772463 -8.19970251 20.133135 -11 22 C-12.5625 20.8125 -12.5625 20.8125 -14 19 C-13.72582948 14.45333893 -11.948063 12.53109621 -8.6875 9.5 C-5.52426236 6.48283544 -2.61309571 3.52199856 0 0 Z " fill="#51B5A8" transform="translate(65,33)"/>
<path d="M0 0 C3.63221409 2.73051059 6.45291105 5.54856948 9.25 9.125 C9.93578125 9.99382813 10.6215625 10.86265625 11.328125 11.7578125 C14.22935947 15.64872041 14.08939719 18.17255154 14 23 C12 21 12 21 10.3125 17.375 C7.98767196 12.54855092 4.65999002 8.86560744 1 5 C-3.21767063 8.01262188 -6.5152516 11.4428657 -9 16 C-9 16.99 -9 17.98 -9 19 C-6.03 16.525 -6.03 16.525 -3 14 C-3 17.69859196 -3.79844389 18.22773143 -6.25 20.875 C-6.88679688 21.57882813 -7.52359375 22.28265625 -8.1796875 23.0078125 C-8.78039063 23.66523437 -9.38109375 24.32265625 -10 25 C-13.4942655 29.01943519 -13.4942655 29.01943519 -15 34 C-15.99 34 -16.98 34 -18 34 C-21.06517632 27.02109572 -21.06517632 27.02109572 -20.8125 23.0625 C-20 21 -20 21 -18 20 C-17.67 21.98 -17.34 23.96 -17 26 C-16.01 25.67 -15.02 25.34 -14 25 C-13.97421875 24.41992188 -13.9484375 23.83984375 -13.921875 23.2421875 C-13.17399141 12.94179084 -6.76219022 7.31125695 0 0 Z " fill="#13140F" transform="translate(66,19)"/>
<path d="M0 0 C3.32635882 1.52572656 4.95563002 2.93344504 7 6 C10.11332248 5.33131686 10.11332248 5.33131686 11.1875 2.9375 C11.455625 2.298125 11.72375 1.65875 12 1 C13.32 1.66 14.64 2.32 16 3 C15.43736042 6.50509251 14.34814818 7.95268008 11.625 10.1875 C11.01914063 10.69667969 10.41328125 11.20585938 9.7890625 11.73046875 C6.63492621 13.9686659 3.81316414 14.15929952 0.0625 14.1875 C-0.79214844 14.20167969 -1.64679688 14.21585938 -2.52734375 14.23046875 C-5.13909303 13.98703556 -6.75500652 13.3178268 -9 12 C-7.55575365 8.76138697 -5.74227753 6.38030837 -3.375 3.75 C-2.74335937 3.04359375 -2.11171875 2.3371875 -1.4609375 1.609375 C-0.97882813 1.07828125 -0.49671875 0.5471875 0 0 Z " fill="#ECA94F" transform="translate(66,46)"/>
<path d="M0 0 C4.42597194 3.39667614 8.44436329 6.94526722 11 12 C11 13.32 11 14.64 11 16 C10.34 16 9.68 16 9 16 C7.18008917 13.99182253 5.52894795 11.87813661 3.8515625 9.75 C1.94011162 7.54207092 1.94011162 7.54207092 -2 8 C-4.23451749 9.96812661 -4.23451749 9.96812661 -6.25 12.5 C-6.95640625 13.3353125 -7.6628125 14.170625 -8.390625 15.03125 C-8.92171875 15.6809375 -9.4528125 16.330625 -10 17 C-10.33 16.34 -10.66 15.68 -11 15 C-8.78487351 8.94532093 -4.34545849 4.64478936 0 0 Z " fill="#4DB1A4" transform="translate(66,23)"/>
<path d="M0 0 C7 0 7 0 9 1 C9.484375 3.43359375 9.484375 3.43359375 9.75 6.4375 C9.89695312 7.92056641 9.89695312 7.92056641 10.046875 9.43359375 C10 12 10 12 8 14 C5.31160615 14.26991906 2.70858064 14.08737357 0 14 C0 9.38 0 4.76 0 0 Z M3 3 C3 3.66 3 4.32 3 5 C3.99 5 4.98 5 6 5 C6 4.34 6 3.68 6 3 C5.01 3 4.02 3 3 3 Z M3 8 C3 8.99 3 9.98 3 11 C4.32 11 5.64 11 7 11 C7 10.01 7 9.02 7 8 C5.68 8 4.36 8 3 8 Z " fill="#1F695A" transform="translate(11,68)"/>
<path d="M0 0 C0 0.99 0 1.98 0 3 C-1.98 3.33 -3.96 3.66 -6 4 C-6 5.98 -6 7.96 -6 10 C-3.69 10.33 -1.38 10.66 1 11 C0.67 11.99 0.34 12.98 0 14 C-7.36270368 14.48280024 -7.36270368 14.48280024 -10.0625 12.4375 C-11.40702579 8.94173294 -10.91378144 6.58985565 -10 3 C-7.66105586 -1.02818157 -4.27037442 -0.24171931 0 0 Z " fill="#1F695A" transform="translate(114,68)"/>
<path d="M0 0 C0.94875 0.04125 1.8975 0.0825 2.875 0.125 C2.875 1.115 2.875 2.105 2.875 3.125 C1.225 3.125 -0.425 3.125 -2.125 3.125 C-2.125 3.785 -2.125 4.445 -2.125 5.125 C-1.320625 5.434375 -0.51625 5.74375 0.3125 6.0625 C2.875 7.125 2.875 7.125 3.875 8.125 C4 10.625 4 10.625 3.875 13.125 C2.875 14.125 2.875 14.125 1.02734375 14.22265625 C-1.0234375 14.19010417 -3.07421875 14.15755208 -5.125 14.125 C-5.125 13.135 -5.125 12.145 -5.125 11.125 C-3.145 11.125 -1.165 11.125 0.875 11.125 C0.875 10.465 0.875 9.805 0.875 9.125 C-1.105 8.465 -3.085 7.805 -5.125 7.125 C-5.25 4.75 -5.25 4.75 -5.125 2.125 C-3.125 0.125 -3.125 0.125 0 0 Z " fill="#1F695A" transform="translate(121.125,67.875)"/>
<path d="M0 0 C4.29 0 8.58 0 13 0 C13 0.99 13 1.98 13 3 C11.68 3 10.36 3 9 3 C9 6.63 9 10.26 9 14 C7.68 14 6.36 14 5 14 C5 10.37 5 6.74 5 3 C3.35 3 1.7 3 0 3 C0 2.01 0 1.02 0 0 Z " fill="#1F695A" transform="translate(84,68)"/>
<path d="M0 0 C1.32 0 2.64 0 4 0 C4 4.62 4 9.24 4 14 C2.68 14 1.36 14 0 14 C0 9.38 0 4.76 0 0 Z " fill="#1F695A" transform="translate(98,68)"/>
<path d="M0 0 C0 3.72038015 -0.90324391 4.44902879 -3.3125 7.1875 C-3.92738281 7.90292969 -4.54226562 8.61835937 -5.17578125 9.35546875 C-7 11 -7 11 -10 11 C-10 8.03 -10 5.06 -10 2 C-9.34 2 -8.68 2 -8 2 C-7.67 3.32 -7.34 4.64 -7 6 C-4.69 4.02 -2.38 2.04 0 0 Z " fill="#080F0D" transform="translate(63,33)"/>
<path d="M0 0 C0.66 0.66 1.32 1.32 2 2 C-0.99424358 5.84974175 -3.4435978 8.96160954 -8 11 C-8.99 10.67 -9.98 10.34 -11 10 C-10.34 10 -9.68 10 -9 10 C-9 9.34 -9 8.68 -9 8 C-9.66 7.67 -10.32 7.34 -11 7 C-10.113125 6.5875 -9.22625 6.175 -8.3125 5.75 C-5.18687634 4.09872712 -2.68094386 2.28668741 0 0 Z " fill="#201D18" transform="translate(82,52)"/>
<path d="M0 0 C3.44630058 1.14876686 3.91620679 2.19140915 6 5 C6.66 5 7.32 5 8 5 C8.33 4.34 8.66 3.68 9 3 C9.66 3 10.32 3 11 3 C10.75 5.375 10.75 5.375 10 8 C7.9375 9.3125 7.9375 9.3125 6 10 C4.79557292 8.4375 3.59114583 6.875 2.38671875 5.3125 C0.95508863 3.65629795 0.95508863 3.65629795 -2 4 C-1.34 2.68 -0.68 1.36 0 0 Z " fill="#16150D" transform="translate(67,43)"/>
<path d="M0 0 C3.21043882 1.38188453 5.04936365 2.92421903 7.25 5.625 C7.77078125 6.25664063 8.2915625 6.88828125 8.828125 7.5390625 C9.40820312 8.26222656 9.40820312 8.26222656 10 9 C8.68 9 7.36 9 6 9 C5.38125 8.34 4.7625 7.68 4.125 7 C2.08931956 4.6649661 2.08931956 4.6649661 -1.25 4.75 C-2.1575 4.8325 -3.065 4.915 -4 5 C-2.68 3.35 -1.36 1.7 0 0 Z " fill="#091D1A" transform="translate(65,29)"/>
<path d="M0 0 C0 3.67914713 -0.82802213 4.39826865 -3.1875 7.125 C-3.77917969 7.82882813 -4.37085938 8.53265625 -4.98046875 9.2578125 C-7.32542438 11.28073361 -8.96066402 11.65354719 -12 12 C-9.00626804 7.46663446 -6.91531015 4.52407819 -2 2 C-1.34 1.34 -0.68 0.68 0 0 Z " fill="#191612" transform="translate(63,13)"/>
<path d="M0 0 C1.32 0.33 2.64 0.66 4 1 C3.01 1.66 2.02 2.32 1 3 C1.66 3.33 2.32 3.66 3 4 C2.67 4.66 2.34 5.32 2 6 C1.21625 6.144375 0.4325 6.28875 -0.375 6.4375 C-3.25125721 7.05384083 -4.16384707 7.77728856 -6 10 C-6.66 9.67 -7.32 9.34 -8 9 C-5.36 6.03 -2.72 3.06 0 0 Z " fill="#2A2722" transform="translate(65,8)"/>
<path d="M0 0 C0.66 0 1.32 0 2 0 C1.39593483 3.38276494 0.14257201 5.34321071 -2 8 C-2.66 8.99 -3.32 9.98 -4 11 C-4.8125 8.875 -4.8125 8.875 -5 6 C-3.58633421 3.58545884 -2.01224447 2.01224447 0 0 Z " fill="#101B16" transform="translate(59,27)"/>
<path d="M0 0 C1.9375 0.625 1.9375 0.625 4 2 C4.75 5.125 4.75 5.125 5 8 C4.34 8 3.68 8 3 8 C0.8125 5.6875 0.8125 5.6875 -1 3 C-0.67 2.01 -0.34 1.02 0 0 Z " fill="#50B7A9" transform="translate(72,31)"/>
<path d="M0 0 C3.375 4.5 3.375 4.5 3.1875 8.75 C3.16042969 9.54921875 3.13335937 10.3484375 3.10546875 11.171875 C3.07066406 11.77515625 3.03585938 12.3784375 3 13 C2.67 13 2.34 13 2 13 C1.67 11.35 1.34 9.7 1 8 C0.34 8.66 -0.32 9.32 -1 10 C-0.67 6.7 -0.34 3.4 0 0 Z " fill="#473D2F" transform="translate(46,32)"/>
<path d="M0 0 C0.99 0.33 1.98 0.66 3 1 C3 3.31 3 5.62 3 8 C2.01 7.67 1.02 7.34 0 7 C0 4.69 0 2.38 0 0 Z " fill="#F8B152" transform="translate(81,38)"/>
<path d="M0 0 C3 1 3 1 4.1875 3.0625 C4.455625 3.701875 4.72375 4.34125 5 5 C2.69 4.67 0.38 4.34 -2 4 C-1.34 2.68 -0.68 1.36 0 0 Z " fill="#070E0C" transform="translate(67,43)"/>
</svg>
